<svg width="16" height="16" viewBox="0 0 16 16" fill="none" xmlns="http://www.w3.org/2000/svg">
<path opacity="0.4" d="M13.7474 5.63332C13.0474 2.55332 10.3607 1.16666 8.00073 1.16666C8.00073 1.16666 8.00073 1.16666 7.99407 1.16666C5.64071 1.16666 2.94738 2.54666 2.24738 5.62666C1.46738 9.06666 3.57405 11.98 5.48071 13.8133C6.18738 14.4933 7.09407 14.8333 8.00073 14.8333C8.9074 14.8333 9.81407 14.4933 10.5141 13.8133C12.4207 11.98 14.5274 9.07332 13.7474 5.63332Z" fill="white"/>
<path d="M8.00107 8.97346C9.16087 8.97346 10.1011 8.03326 10.1011 6.87346C10.1011 5.71364 9.16087 4.77344 8.00107 4.77344C6.84127 4.77344 5.90104 5.71364 5.90104 6.87346C5.90104 8.03326 6.84127 8.97346 8.00107 8.97346Z" fill="white"/>
</svg>
